<svg xmlns="http://www.w3.org/2000/svg" viewBox="0 0 1039.8 516.42"><defs><style>.cls-1{fill:#231300;fill-rule:evenodd;}</style></defs><title>Ресурс 1</title><g id="Слой_2" data-name="Слой 2"><g id="Слой_1-2" data-name="Слой 1"><path class="cls-1" d="M558.9,26.91c11.84,12.56,12.82,52.42,12.82,88.71,0,16.94,0,31.81-.09,44.83,0,10.6-.07,20.47-.07,30.13H646.1c.11-47.5.72-93.78,1.74-124.09,1.32-40.07,2.08-44,3.86-53.36.16-.78.31-1.63.49-2.54l.27-1.45L654,9a321.13,321.13,0,0,1,39.22-2.18c30,0,55.33,5,77.36,15.36C793.65,33,811.65,48.3,824,67.63c12.22,19,18.38,41,18.38,65.35a136.63,136.63,0,0,1-12.82,57.6h79.18a116.21,116.21,0,0,0,12.62-53.22c0-51.74-23.44-90.51-69.67-115.22C812.49,1.47,767.58,0,698.21,0c-33.76,0-99.58.29-147.59.53-22.6.09-40.89.18-48.2.18V4.15C526.77,7.63,544,11.33,558.9,26.91M656.81,482c-8.66-13.33-9-32.19-9.52-58.3,0-3.13-.12-6.47-.18-9.91-.63-27-1-62-1-101.36H571.56c-.27,36.92-.78,75.1-1.29,93.45V407c-.76,31.33-1.58,66.87-12,79.52-10.41,12.86-30.64,21.76-60.18,26.46v3.46H725v-3.26c-36.59-1.83-59.2-17.21-68.23-31.15M67.36,32.06c11.33,13.56,11.33,49.51,11.33,84.29v74.23l74.7,0c.11-38.36.55-72.34,2.11-121.17C157,15.85,207.7,7.51,231.3,4.15V.74H5V4.13c27.65,3.5,49.74,13.35,62.32,27.93m292.1,466.66c-30.5,8.67-82.63,10.9-105.93,10.9-35.46,0-81.37-8.7-89.71-20.32-8.38-12.59-9-40.15-9.61-69.32,0-2.3-.09-4.57-.17-6.87-.41-38-.59-66.45-.68-100.67H78c0,11-.11,21.89-.18,32.18-.11,26-.22,48.45-.58,61.27-.52,23.72-3.13,65.6-14.16,79.16C47.4,503.35,15,510.53,0,513v3.46H459.76l26.07-145.25L482.08,370c-22.85,55.43-45,107.5-122.62,128.71M929,435.14c-13.22-18.55-29.53-42.2-45.27-65.13-11.81-17.15-24-34.92-34.85-50.37a17.73,17.73,0,0,0-2.78-2.77,23.46,23.46,0,0,1-2.5-2.4H743.75c.73.69,1.45,1.36,2.18,2a117.68,117.68,0,0,1,8.67,8.62c35.64,41.24,53.74,68.73,76.64,103.58,6.9,10.55,14.08,21.49,22.39,33.76l2.85,4.19c23.4,34.61,23.4,34.61,33.29,44.71,1.43,1.43,3,3.1,4.93,5.06h145.1V513c-45.92-7-76.08-28.2-110.8-77.84"/><path class="cls-1" d="M25.06,275.75H53.92v-5.38H30.77V228.74H25.06Zm100.34-47h-6.26l-13.23,21.5-13.15-21.5H86.18l16.64,26.85v20.16h5.71V255.59Zm44.64,47h5.71V238l16.86,23.21h.87l16.65-23.43v38h5.71v-47H210.4l-16.92,24.09-17.66-24.09H170Zm102.51,0V257.68c2.38.21,5.21.27,7.09.27,11.48,0,16.92-7.11,16.92-14.78,0-7.31-4-14.56-17.41-14.56-2.95,0-9.68.13-12.27.13v47ZM279.7,234c7.47,0,10.82,3.53,10.82,9.12,0,5.91-4.17,9.46-11.1,9.46-2.35,0-4.57-.13-6.87-.31V234.1c2.25,0,5.26-.1,7.15-.1m95.77,41.75h5.67v-47h-5.67V249.1H349.59V228.74h-5.71v47h5.71v-21.3h25.88Zm50.67,0h5.79l6-14.23h21.43l6,14.23h6.11l-20.2-47.23h-4.91Zm22.5-39.65,8.47,20.07H440.2Zm125.58,39.65V257h7.65l14.42,18.8h7l-15.67-19.89a13.4,13.4,0,0,0,10.19-13.29c0-7.6-3.9-14-16.7-14-1.32,0-10,.13-12.64.13v47ZM580.81,234c8.34,0,11,3.82,11,8.63,0,5.58-5.22,9-10.66,9h-6.91V234.1c2.2,0,5.1-.1,6.59-.1m67.82,41.75h27.18v-5.38H654.33V254.65h18.82v-5.33H654.33V234.1h20.81v-5.36H648.63Zm75.52,0h5.73V256.17H748.7v-5.4H729.88V234.1H750.7v-5.36H724.15Zm74.56,0h5.69v-47h-5.69Zm97.38,0v-47h-5.38v37.08l-29.34-37.08H856.8v47h5.37V238.82l29.35,36.93Zm51,0h27.2v-5.38H952.79V254.65h18.84v-5.33H952.79V234.1h20.83v-5.36H947.11Z"/></g></g></svg>