<svg height="512pt" viewBox="-1 0 512 512.0003" width="512pt" xmlns="http://www.w3.org/2000/svg"><path d="m267.535156 354.449219c-58.351562 0-105.820312-47.472657-105.820312-105.820313s47.46875-105.820312 105.820312-105.820312c58.347656 0 105.816406 47.472656 105.816406 105.820312s-47.46875 105.820313-105.816406 105.820313zm0-196.632813c-50.074218 0-90.816406 40.738282-90.816406 90.8125 0 50.074219 40.742188 90.8125 90.816406 90.8125 50.074219 0 90.8125-40.738281 90.8125-90.8125 0-50.074218-40.738281-90.8125-90.8125-90.8125zm0 0"/><path d="m367.105469 383.136719c-4.414063 1.90625-8.96875 3.71875-13.542969 5.394531-3.890625 1.421875-5.890625 5.730469-4.464844 9.621094 1.113282 3.042968 3.988282 4.925781 7.046875 4.925781.855469 0 1.726563-.148437 2.578125-.457031 4.839844-1.773438 9.660156-3.691406 14.328125-5.707032 3.804688-1.640624 5.558594-6.058593 3.914063-9.863281-1.640625-3.800781-6.054688-5.554687-9.859375-3.914062zm0 0"/><path d="m402.992188 363.960938c-4.03125 2.621093-8.210938 5.15625-12.425782 7.539062-3.609375 2.039062-4.878906 6.617188-2.839844 10.222656 1.378907 2.441406 3.917969 3.8125 6.539063 3.8125 1.25 0 2.515625-.3125 3.683594-.972656 4.484375-2.535156 8.933593-5.234375 13.222656-8.019531 3.472656-2.257813 4.460937-6.90625 2.203125-10.378907-2.261719-3.476562-6.90625-4.460937-10.382812-2.203124zm0 0"/><path d="m434.933594 338.882812c-3.5 3.300782-7.160156 6.535157-10.878906 9.609376-3.191407 2.640624-3.640626 7.371093-1 10.5625 1.484374 1.796874 3.628906 2.722656 5.785156 2.722656 1.683594 0 3.378906-.5625 4.78125-1.722656 3.964844-3.28125 7.871094-6.730469 11.609375-10.253907 3.015625-2.84375 3.152343-7.589843.308593-10.605469-2.839843-3.015624-7.589843-3.15625-10.605468-.3125zm0 0"/><path d="m49.640625 306.710938c-3.382813 2.398437-4.179687 7.082031-1.78125 10.460937 2.957031 4.167969 6.128906 8.324219 9.4375 12.347656 1.480469 1.808594 3.632813 2.742188 5.800781 2.742188 1.675782 0 3.363282-.558594 4.757813-1.703125 3.203125-2.628906 3.667969-7.355469 1.035156-10.558594-3.082031-3.753906-6.039063-7.625-8.792969-11.507812-2.394531-3.382813-7.078125-4.179688-10.457031-1.78125zm0 0"/><path d="m328.480469 396.355469c-4.660157 1.21875-9.449219 2.339843-14.238281 3.339843-4.054688.847657-6.65625 4.820313-5.8125 8.878907.742187 3.539062 3.859374 5.96875 7.339843 5.96875.507813 0 1.023438-.050781 1.539063-.160157 5.03125-1.050781 10.066406-2.230468 14.964844-3.507812 4.007812-1.046875 6.410156-5.148438 5.363281-9.15625s-5.140625-6.414062-9.15625-5.363281zm0 0"/><path d="m461.738281 308.441406c-2.8125 3.878906-5.8125 7.726563-8.90625 11.4375-2.65625 3.179688-2.230469 7.910156.949219 10.566406 1.402344 1.171876 3.109375 1.742188 4.804688 1.742188 2.144531 0 4.277343-.914062 5.761718-2.691406 3.316406-3.96875 6.523438-8.089844 9.539063-12.242188 2.433593-3.355468 1.683593-8.046875-1.667969-10.480468-3.355469-2.433594-8.046875-1.6875-10.480469 1.667968zm0 0"/><path d="m118.445312 364.355469c-3.464843-2.273438-8.117187-1.304688-10.386718 2.160156-2.273438 3.464844-1.304688 8.117187 2.160156 10.386719 4.28125 2.808594 8.722656 5.523437 13.203125 8.070312 1.167969.667969 2.441406.984375 3.703125.984375 2.605469 0 5.144531-1.363281 6.527344-3.792969 2.046875-3.601562.789062-8.183593-2.8125-10.230468-4.203125-2.394532-8.375-4.945313-12.394532-7.578125zm0 0"/><path d="m154.261719 383.585938c-3.804688-1.640626-8.21875.117187-9.859375 3.921874-1.640625 3.804688.113281 8.21875 3.917968 9.859376 4.683594 2.015624 9.511719 3.933593 14.347657 5.691406.847656.308594 1.714843.453125 2.5625.453125 3.066406 0 5.945312-1.890625 7.050781-4.941407 1.417969-3.894531-.589844-8.199218-4.484375-9.613281-4.566406-1.660156-9.121094-3.464843-13.535156-5.371093zm0 0"/><path d="m86.648438 339.121094c-2.996094-2.863282-7.746094-2.753906-10.605469.242187-2.863281 2.996094-2.753907 7.746094.242187 10.609375 3.710938 3.542969 7.601563 7.019532 11.554688 10.328125 1.40625 1.171875 3.113281 1.746094 4.808594 1.746094 2.144531 0 4.273437-.914063 5.757812-2.6875 2.660156-3.179687 2.238281-7.910156-.9375-10.570313-3.707031-3.097656-7.34375-6.351562-10.820312-9.667968zm0 0"/><path d="m192.878906 396.667969c-4.015625-1.023438-8.097656 1.40625-9.121094 5.421875-1.019531 4.015625 1.40625 8.097656 5.421876 9.121094 4.90625 1.246093 9.957031 2.390624 15.003906 3.402343.496094.097657.992187.144531 1.480468.144531 3.503907 0 6.636719-2.464843 7.347657-6.03125.8125-4.0625-1.824219-8.015624-5.886719-8.828124-4.796875-.957032-9.589844-2.046876-14.246094-3.230469zm0 0"/><path d="m296.589844 410.523438c-.511719-4.113282-4.269532-7.027344-8.371094-6.519532-4.789062.59375-9.703125 1.101563-14.605469 1.5-4.128906.339844-7.203125 3.960938-6.863281 8.089844.316406 3.921875 3.601562 6.890625 7.46875 6.890625.203125 0 .410156-.007813.617188-.023437 5.109374-.417969 10.234374-.945313 15.234374-1.566407 4.113282-.511719 7.03125-4.257812 6.519532-8.371093zm0 0"/><path d="m254.75 413.195312c.273438-4.132812-2.855469-7.707031-6.988281-7.980468-4.90625-.328125-9.820313-.761719-14.605469-1.292969-4.117188-.460937-7.828125 2.507813-8.285156 6.625-.457032 4.121094 2.507812 7.828125 6.628906 8.289063 5.003906.554687 10.140625 1.007812 15.269531 1.351562.167969.011719.335938.015625.503907.015625 3.914062 0 7.214843-3.042969 7.476562-7.007813zm0 0"/><path d="m479.296875 390.199219c-7.277344 6.34375-14.378906 12.734375-21.25 18.917969-33.992187 30.589843-66.101563 59.484374-111.050781 74.53125-34.238282 11.457031-70.871094 15.65625-105.945313 12.140624-44.011719-4.410156-74.253906-16.667968-111.574219-45.222656-13.601562-10.40625-26.414062-23.015625-38.804687-35.207031-18.71875-18.425781-38.078125-37.476563-61.460937-50.542969-3.621094-2.023437-8.191407-.726562-10.210938 2.890625-2.023438 3.617188-.726562 8.1875 2.890625 10.207031 21.621094 12.082032 39.417969 29.597657 58.257813 48.140626 12.714843 12.515624 25.867187 25.457031 40.210937 36.429687 39.789063 30.441406 72.09375 43.515625 119.195313 48.234375 8.539062.855469 17.160156 1.28125 25.820312 1.28125 29.035156 0 58.472656-4.78125 86.386719-14.121094 47.90625-16.035156 81.140625-45.945312 116.324219-77.609375 6.828124-6.140625 13.886718-12.496093 21.074218-18.757812 3.121094-2.722657 3.449219-7.464844.726563-10.585938-2.726563-3.125-7.464844-3.449219-10.589844-.726562zm0 0"/><path d="m507.972656 128.332031c-5.949218-10.230469-13.421875-20.328125-22.203125-30.007812-13.03125-14.363281-27.464843-27.492188-41.742187-37.964844-20.710938-15.191406-38.652344-25.914063-56.46875-33.75-9.9375-4.371094-20.472656-8.261719-31.3125-11.558594-46.902344-14.273437-101.664063-18.421875-162.765625-12.328125-3.5625.355469-7.175781.761719-10.742188 1.214844-4.109375.519531-7.019531 4.273438-6.5 8.386719.519531 4.109375 4.269531 7.019531 8.386719 6.5 3.433594-.4375 6.914062-.828125 10.34375-1.171875 59.121094-5.894532 111.910156-1.941406 156.90625 11.753906 10.273438 3.125 20.246094 6.804688 29.640625 10.9375 16.789063 7.382812 33.832031 17.585938 53.636719 32.113281 13.476562 9.886719 27.136718 22.316407 39.503906 35.949219 6.125 6.753906 11.542969 13.703125 16.171875 20.734375-31.644531-18.398437-67.179687-34.625-108.351563-49.484375-30.582031-11.042969-68.648437-24.789062-107.269531-23.644531-14.6875.433593-30.074219 2.195312-45.738281 5.238281-39.640625 7.695312-81.191406 23.398438-123.5 46.664062-.648438.355469-2.617188 1.441407-42.449219 26.726563-1.816406 1.15625-4.238281.875-5.746093-.664063l-41.441407-42.242187c-1.28125-1.304687-1.371093-2.8125-1.3125-3.59375.058594-.769531.367188-2.21875 1.792969-3.289063 38.136719-28.621093 84.640625-49.476562 134.492188-60.3125 4.046874-.878906 6.617187-4.875 5.738281-8.925781-.882813-4.050781-4.875-6.617187-8.925781-5.738281-51.945313 11.289062-100.464844 33.066406-140.3125 62.976562-4.5 3.375-7.324219 8.535157-7.7500005 14.15625-.4257815 5.644532 1.6015625 11.195313 5.5664065 15.234376l41.441406 42.242187c3.78125 3.851563 8.886719 5.851563 14.035156 5.851563 3.621094 0 7.261719-.992188 10.464844-3.027344 36.238281-23.003906 41.042969-25.910156 41.640625-26.246094 40.9375-22.511719 81.019531-37.679688 119.125-45.082031 14.871094-2.890625 29.445313-4.5625 43.320313-4.96875 35.75-1.058594 72.347656 12.148437 101.734374 22.757812 43.257813 15.617188 80.09375 32.730469 112.605469 52.308594 5.175781 3.121094 11.550781 2.363281 15.859375-1.878906 4.316406-4.253907 5.171875-10.628907 2.125-15.867188zm0 0"/><path d="m267.535156 476.652344c4.144532 0 7.503906-3.359375 7.503906-7.503906v-8.710938c1.148438.664062 2.441407 1 3.742188 1 1.792969 0 3.59375-.636719 5.027344-1.9375 3.074218-2.777344 3.3125-7.523438.535156-10.59375l-11.234375-12.421875c-1.417969-1.570313-3.4375-2.46875-5.558594-2.46875h-.003906c-2.117187 0-4.136719.894531-5.558594 2.464844l-11.257812 12.417969c-2.78125 3.070312-2.550781 7.816406.519531 10.597656 2.472656 2.242187 6.035156 2.523437 8.78125.941406v8.710938c0 4.144531 3.359375 7.503906 7.503906 7.503906zm0 0"/><path d="m341.914062 127.679688c-39.472656-14.65625-70.574218-14.117188-74.378906-13.980469-3.808594-.136719-34.90625-.675781-74.378906 13.980469-37.984375 14.101562-91.167969 45.585937-128.820312 115.503906-1.835938 3.410156-1.835938 7.480468 0 10.890625 37.652343 69.917969 90.835937 101.402343 128.820312 115.503906 39.457031 14.648437 70.554688 14.109375 74.371094 13.980469.5.019531 1.425781.042968 2.742187.042968 13.488281 0 67.984375-2.550781 123.082031-40.898437 3.402344-2.367187 4.242188-7.042969 1.871094-10.445313-2.367187-3.398437-7.039062-4.238281-10.441406-1.871093-57.816406 40.242187-116.328125 38.195312-116.898438 38.167969-.234374-.007813-.464843-.007813-.695312 0-.300781.019531-30.378906 1.222656-68.808594-13.042969-22.617187-8.394531-43.511718-20.425781-62.105468-35.75-22.847657-18.835938-42.292969-42.761719-57.820313-71.132813 15.449219-28.230468 34.78125-52.0625 57.484375-70.851562 18.503906-15.316406 39.300781-27.359375 61.8125-35.796875 38.523438-14.4375 69.136719-13.296875 69.4375-13.277344.222656.007813.460938.007813.683594 0 .304687-.015625 30.925781-1.160156 69.445312 13.277344 22.515625 8.4375 43.3125 20.480469 61.8125 35.796875 22.703125 18.789062 42.035156 42.621094 57.484375 70.851562-12.78125 23.355469-28.269531 43.769532-46.054687 60.703125-3 2.855469-3.117188 7.605469-.261719 10.605469s7.605469 3.117188 10.605469.261719c19.355468-18.425781 36.121094-40.675781 49.828125-66.125 1.835937-3.410157 1.835937-7.480469 0-10.890625-37.648438-69.917969-90.832031-101.402344-128.816407-115.503906zm0 0"/><path d="m291.195312 167.527344c-11.648437 0-22.148437 5-29.480468 12.960937-35.003906 2.964844-62.585938 32.382813-62.585938 68.140625 0 37.71875 30.683594 68.40625 68.40625 68.40625 37.71875 0 68.40625-30.6875 68.40625-68.40625 0-10.371094-2.339844-20.199218-6.488281-29.015625 1.1875-3.789062 1.832031-7.816406 1.832031-11.992187 0-22.109375-17.984375-40.09375-40.089844-40.09375zm0 15.007812c13.832032 0 25.085938 11.25 25.085938 25.082032 0 13.832031-11.253906 25.085937-25.085938 25.085937-13.832031 0-25.085937-11.253906-25.085937-25.085937 0-13.832032 11.253906-25.082032 25.085937-25.082032zm-23.660156 119.496094c-29.445312 0-53.402344-23.957031-53.402344-53.402344 0-24.195312 16.183594-44.664062 38.289063-51.199218-.855469 3.257812-1.316406 6.667968-1.316406 10.191406 0 22.105468 17.984375 40.089844 40.089843 40.089844 11 0 20.980469-4.457032 28.230469-11.65625.980469 4.035156 1.511719 8.242187 1.511719 12.574218 0 29.445313-23.957031 53.402344-53.402344 53.402344zm0 0"/></svg>