<svg height="512" viewBox="0 0 60 60" width="512" xmlns="http://www.w3.org/2000/svg"><g id="040---Cracked-Skin"><path id="Shape" d="m43 0c-6.6894316.0093266-12.7524851 3.93814141-15.494 10.04-3.648314.1254662-7.2279235 1.0275278-10.5 2.646-6.206-.112-13.144 3.075-14.041 12.389-1.018 10.625 4.524 23.345-2.14 24.664-.37869494.0838834-.67635938.3764479-.76677409.7536368s.04226321.7729093.34177409 1.0193632c1.126.929 2.8 5.685 16.751 6.391.390772 1.2454827 1.5436566 2.0940608 2.849 2.097h9c1.3049423-.0049767 2.4563546-.8545782 2.846-2.1 1.262-.063 2.472-.159 3.642-.312 8.949-1.15 11.168-3.8 12.495-5.391.2126939-.2833718.4554416-.5428839.724-.774.2609883-.261042.3569462-.644631.2496109-.9978122-.1073352-.3531811-.4005058-.6185101-.7626109-.6901878-4.84-.96-3.265-7.726-2.376-15.993 8.7053836-1.4726119 14.8320792-9.3675946 14.0972688-18.166023s-8.0862133-15.56777296-16.9152688-15.575977zm-40.2 51.192c6.643-3.127 1.186-15.856 2.152-25.926.973-10.1 9.545-10.638 12.164-10.578.1451463.0116038.2911927-.0033058.431-.044 2.8482592-1.4859204 5.9759679-2.3593081 9.182-2.564-1.0951484 3.5875144-.9582099 7.4383379.389 10.939-.759-.014-1.61-.019-2.618-.019-4.789 0-6.586-2.736-7.23-4.368-.1153428-.2915749-.3607701-.5121664-.6629526-.5958659-.3021826-.0836994-.626128-.0208145-.8750474.1698659-2.857 2.187-4.261 5.9-4.3 11.316-.5864898-.1853162-1.2215478-.1402614-1.776.126-1.116.563-1.656 1.973-1.656 4.312 0 5.04 2.97 6.513 4.574 6.94.7922865 2.9734696 2.3135065 5.7024543 4.426 7.94v7.052c-1.111-.062-2.2-.15-3.212-.284-7.644-.982-9.806-3.04-10.988-4.416zm22.49-16.485c.3904999.3903819 1.0235001.3903819 1.414 0l5.018-5.019c1.1502808 1.023941 2.4343603 1.8868344 3.817 2.565-.109 3.925-.5 7.5-2.138 10.973-2.093 4.468-5.09 6.734-8.9 6.734-3.84 0-6.846-2.266-8.934-6.733-1.788-3.827-2.147-7.99-2.147-13.457 0-4.219.857-7.226 2.613-9.14 1.118 1.87 3.534 4.37 8.467 4.37 1.444 0 2.57.009 3.53.045.6324457 1.1612071 1.3979321 2.2448351 2.281 3.229l-5.018 5.019c-.3903819.3904999-.3903819 1.0235001 0 1.414zm13.7-1.2c.073 1.978-.319 4.023-2.026 5.038.314933-1.8057858.5004055-3.6317706.555-5.464.4806667.1606667.9706667.3003333 1.47.419zm-27.55-1.813c.0148905 2.2967747.2155448 4.5885817.6 6.853-1.049-.628-2.04-1.919-2.04-4.587 0-2.221.532-2.515.555-2.526.107-.056.421-.01.884.255zm17.56 26.306h-9c-.5522847 0-1-.4477153-1-1v-6.575c3.3796131 2.0576404 7.6263871 2.0514633 11-.016v6.591c0 .5522847-.4477153 1-1 1zm17.218-6.808c-1.18 1.376-3.341 3.434-10.988 4.416-1.039.137-2.116.223-3.23.284v-7.084c2.1009566-2.2241516 3.6091627-4.9407108 4.386-7.9 2.73-.71 4.627-2.978 4.612-7.041.9215248.1324484 1.8548955.1622975 2.783.089-.794 7.117-2.455 14.934 2.437 17.236zm-3.218-19.192c-8.2842712 0-15-6.7157288-15-15 0-8.28427125 6.7157288-15 15-15s15 6.71572875 15 15c-.0093685 8.2803876-6.7196124 14.9906315-15 15z"/><path id="Shape" d="m43 4c-7.1797017 0-13 5.82029825-13 13 0 7.1797017 5.8202983 13 13 13s13-5.8202983 13-13c-.008266-7.17627506-5.8237249-12.99173398-13-13zm0 24c-6.0751322 0-11-4.9248678-11-11s4.9248678-11 11-11 11 4.9248678 11 11c-.0071635 6.0721626-4.9278374 10.9928365-11 11z"/><path id="Shape" d="m49.82 19.678-1.82-1.213v-.744c.0012125-.8616854-.5496106-1.6272771-1.367-1.9l-1.95-.65c-.123-.3.379.715-1.529-3.1l1.678-2.517c.1982824-.29724497.2229246-.67769305.0646441-.99803314-.1582805-.32034008-.4754371-.53190488-.832-.555-.3565629-.02309511-.6983617.14578817-.8966441.44303314l-1.576 2.366-2.276-.759c-.5246705-.17452198-1.091478.1093295-1.266.634s.1093295 1.091478.634 1.266l2.607.869 1.555 3.11-1.567 2.351-2.388 1.592c-.555931.3704268-.8902089.9939621-.891 1.662v1.465c0 .5522847.4477153 1 1 1s1-.4477153 1-1v-1.465c2.536-1.69 2.647-1.7 2.943-2.147l1.465-2.2 1.592.533v.744c.0001229.6687467.3344799 1.29318.891 1.664l1.82 1.213-.606 1.211c-.2468713.4942948-.0462948 1.0951287.448 1.342.4942949.2468713 1.0951287.0462948 1.342-.448l.6-1.21c.4522275-.9011981.1628915-1.998103-.675-2.559z"/></g></svg>