<svg height="682pt" viewBox="-21 -21 682.66669 682" width="682pt" xmlns="http://www.w3.org/2000/svg"><path d="m627.453125.332031h-614.90625c-6.929687 0-12.546875 5.621094-12.546875 12.550781v418.320313c0 6.929687 5.617188 12.546875 12.546875 12.546875h170.351563l3.0625 7.441406c4.941406 12.011719 7.445312 24.695313 7.445312 37.6875v8.628906c0 13.878907 5.40625 26.925782 15.222656 36.742188l15.4375 15.4375c2.96875 2.96875 4.605469 6.914062 4.605469 11.113281v14.179688h-.773437c-3.328126 0-6.523438 1.324219-8.875 3.683593-2.351563 2.359376-3.671876 5.550782-3.667969 8.882813l.066406 39.582031c.007813 6.925782 5.625 12.53125 12.546875 12.53125l146.664062-.042968c3.332032 0 6.523438-1.328126 8.878907-3.683594 2.347656-2.359375 3.671875-5.554688 3.660156-8.886719l-.058594-39.585937c-.007812-6.367188-4.765625-11.605469-10.917969-12.40625v-18.867188c0-1.976562.617188-3.867188 1.777344-5.46875l3.214844-4.433594c6.023438-8.316406 9.210938-18.140625 9.210938-28.40625v-74.128906h237.054687c6.929687 0 12.546875-5.617188 12.546875-12.542969v-418.324219c0-6.929687-5.617188-12.550781-12.546875-12.550781zm-401.082031 516.179688c-5.074219-5.078125-7.871094-11.828125-7.871094-19.003907v-8.628906c0-16.285156-3.140625-32.179687-9.328125-47.238281l-5.664063-13.769531c-.273437-1-.671874-1.953125-1.167968-2.835938l-7.070313-17.191406c-.136719-.328125-.105469-.703125.082031-.996094.265626-.410156.765626-.601562 1.230469-.460937 6.191407 1.855469 11.285157 6.015625 14.347657 11.707031l3.070312 5.726562c4.265625 7.9375 7.269531 16.453126 8.933594 25.3125l1.542968 8.246094c1.195313 6.367188 7.050782 10.785156 13.492188 10.175782 6.453125-.59375 11.386719-6.011719 11.386719-12.488282v-137.625c0-1.261718.472656-2.472656 1.34375-3.421875l.097656-.101562c1.226563-1.339844 2.714844-1.59375 3.492187-1.621094.78125-.042969 2.28125.09375 3.617188 1.324219 1.03125.949218 1.621094 2.296875 1.621094 3.699218v108.847657c0 6.929687 5.613281 12.550781 12.542968 12.550781 6.933594 0 12.546876-5.621094 12.546876-12.550781v-51.3125c0-.953125.421874-1.839844 1.160156-2.441407 2.234375-1.820312 5.4375-1.636718 7.449218.433594 1.007813 1.035156 1.558594 2.402344 1.558594 3.84375v54.378906c0 6.925782 5.621094 12.542969 12.550782 12.542969 6.925781 0 12.542968-5.617187 12.542968-12.542969v-33.316406c0-3.242187 1.683594-6.292968 4.414063-8.027344 1.128906-.539062 2.464843-.46875 3.535156.195313 1.082031.679687 1.734375 1.847656 1.734375 3.125v46.835937c0 6.929688 5.613281 12.546876 12.542969 12.546876 6.925781 0 12.546875-5.617188 12.546875-12.546876v-14.972656c0-2.253906.679687-4.421875 1.957031-6.265625.890625-1.273437 2.15625-2.140625 3.304687-2.261719.804688-.078124 2.359376-.027343 3.757813 1.214844 1.039063.929688 1.636719 2.257813 1.636719 3.652344v96.621094c0 4.949218-1.535156 9.683594-4.441406 13.6875l-3.210938 4.429687c-4.289062 5.90625-6.554688 12.894531-6.554688 20.199219v18.558594h-97.335937v-13.945313c0-10.898437-4.25-21.144531-11.953125-28.855469zm48.53125-221.347657c-5.921875-5.457031-13.605469-8.253906-21.660156-7.941406-8.046876.335938-15.472657 3.785156-20.941407 9.738282l-.09375.101562c-5.121093 5.570312-7.945312 12.808594-7.945312 20.378906v.601563h-116.855469v-98.40625h425.1875v98.40625h-247.976562v-.722657c0-8.394531-3.539063-16.46875-9.714844-22.15625zm-34.410156 319.398438-.023438-14.492188 121.570312-.035156.027344 14.492188zm149.785156-195.902344c-.660156-7.578125-4.179688-14.679687-9.902344-19.785156-6.273438-5.59375-14.65625-8.308594-23.023438-7.453125-.914062.09375-1.828124.234375-2.726562.414063-.390625-9.503907-5.371094-18.109376-13.5-23.1875-7.042969-4.402344-15.578125-5.496094-23.375-3.203126-1.464844-3.71875-3.667969-7.144531-6.523438-10.085937-7.195312-7.402344-17.128906-10.457031-26.609374-8.980469v-3.242187h260.523437c6.929687 0 12.546875-5.617188 12.546875-12.542969v-123.503906c0-6.925782-5.617188-12.546875-12.546875-12.546875h-450.28125c-6.929687 0-12.546875 5.621093-12.546875 12.546875v123.503906c0 6.925781 5.617188 12.542969 12.546875 12.542969h129.402344v51.328125c-5.652344-5.597656-12.628907-9.761719-20.46875-12.113282-11.199219-3.355468-23.386719 1.195313-29.636719 11.066407-4.539062 7.164062-5.324219 16.125-2.09375 23.964843l.519531 1.277344h-147.488281v-258.347656h454.703125c6.925781 0 12.542969-5.613281 12.542969-12.542969 0-6.929687-5.617188-12.546875-12.542969-12.546875h-454.703125v-109.796875h589.8125v109.796875h-36.308594c-6.933594 0-12.546875 5.617188-12.546875 12.546875 0 6.929688 5.613281 12.542969 12.546875 12.542969h36.308594v258.347656zm0 0"/><path d="m79.847656 43.039062c-20.273437 0-36.761718 16.492188-36.761718 36.761719 0 20.273438 16.492187 36.769531 36.761718 36.769531 20.273438 0 36.761719-16.496093 36.761719-36.769531 0-20.269531-16.488281-36.761719-36.761719-36.761719zm0 48.4375c-6.433594 0-11.667968-5.234374-11.667968-11.675781 0-6.433593 5.234374-11.667969 11.667968-11.667969 6.4375 0 11.671875 5.234376 11.671875 11.667969 0 6.441407-5.234375 11.675781-11.671875 11.675781zm0 0"/><path d="m168.070312 43.039062c-20.273437 0-36.765624 16.492188-36.765624 36.761719 0 20.273438 16.492187 36.769531 36.765624 36.769531 20.269532 0 36.765626-16.496093 36.765626-36.769531 0-20.269531-16.496094-36.761719-36.765626-36.761719zm0 48.4375c-6.4375 0-11.671874-5.234374-11.671874-11.675781 0-6.433593 5.234374-11.667969 11.671874-11.667969s11.671876 5.234376 11.671876 11.667969c0 6.441407-5.234376 11.675781-11.671876 11.675781zm0 0"/><path d="m256.023438 43.039062c-20.273438 0-36.761719 16.492188-36.761719 36.761719 0 20.273438 16.496093 36.769531 36.761719 36.769531 20.273437 0 36.769531-16.496093 36.769531-36.769531 0-20.269531-16.496094-36.761719-36.769531-36.761719zm0 48.4375c-6.433594 0-11.667969-5.234374-11.667969-11.675781 0-6.433593 5.234375-11.667969 11.667969-11.667969 6.4375 0 11.675781 5.234376 11.675781 11.667969 0 6.441407-5.238281 11.675781-11.675781 11.675781zm0 0"/><path d="m298.960938 285.328125 8.765624-12.207031c4.039063-5.628906 2.757813-13.464844-2.875-17.507813-5.628906-4.042969-13.464843-2.753906-17.507812 2.871094l-8.765625 12.207031c-4.042969 5.628906-2.753906 13.464844 2.871094 17.507813 2.21875 1.59375 4.777343 2.359375 7.308593 2.359375 3.90625 0 7.757813-1.820313 10.203126-5.230469zm0 0"/><path d="m254.984375 243.339844c-6.929687 0-12.546875 5.617187-12.546875 12.546875v15.027343c0 6.929688 5.617188 12.542969 12.546875 12.542969s12.546875-5.613281 12.546875-12.542969v-15.027343c0-6.929688-5.617188-12.546875-12.546875-12.546875zm0 0"/><path d="m224.75 258.484375c-4.042969-5.625-11.882812-6.914063-17.507812-2.871094-5.632813 4.042969-6.914063 11.878907-2.871094 17.507813l8.761718 12.207031c2.449219 3.414063 6.300782 5.230469 10.203126 5.230469 2.53125 0 5.09375-.765625 7.308593-2.359375 5.625-4.042969 6.914063-11.878907 2.871094-17.507813zm0 0"/><path d="m458.988281 262.710938h43.492188c6.929687 0 12.550781-5.613282 12.550781-12.542969 0-6.929688-5.621094-12.550781-12.550781-12.550781h-43.492188c-6.933593 0-12.546875 5.621093-12.546875 12.550781 0 6.929687 5.613282 12.542969 12.546875 12.542969zm0 0"/><path d="m537.882812 137.917969-.367187-.28125c-5.519531-4.1875-13.390625-3.113281-17.585937 2.402343-4.1875 5.519532-3.113282 13.390626 2.40625 17.585938l.367187.277344c2.265625 1.722656 4.933594 2.558594 7.578125 2.558594 3.789062 0 7.53125-1.710938 10-4.960938 4.191406-5.519531 3.117188-13.390625-2.398438-17.582031zm0 0"/></svg>